HIERARCHY
ROOT Hips
{
	OFFSET 0.000000 0.000000 0.000000
	CHANNELS 6 Xposition Yposition Zposition Xrotation Yrotation Zrotation
	JOINT LeftUpLeg_virtual
	{
		OFFSET 0.000000 0.000000 0.000000
		CHANNELS 3 Xrotation Yrotation Zrotation
		JOINT LeftUpLeg
		{
			OFFSET 11.394100 -6.187798 -0.413800
			CHANNELS 3 Xrotation Yrotation Zrotation
			JOINT LeftLeg
			{
				OFFSET 0.430247 -32.302673 3.732800
				CHANNELS 3 Xrotation Yrotation Zrotation
				JOINT LeftFoot
				{
					OFFSET -0.430247 -48.264931 -6.423300
					CHANNELS 3 Xrotation Yrotation Zrotation
					JOINT LeftToeBase
					{
						OFFSET 4.230900 -16.068199 23.438400
						CHANNELS 3 Xrotation Yrotation Zrotation
						JOINT LeftToe_End
						{
							OFFSET 4.510700 0.695400 19.974600
							CHANNELS 3 Xrotation Yrotation Zrotation
							End Site
							{
								OFFSET 0 0 0
							}
						}
					}
				}
			}
		}
	}
	JOINT RightUpLeg_virtual
	{
		OFFSET 0.000000 0.000000 0.000000
		CHANNELS 3 Xrotation Yrotation Zrotation
		JOINT RightUpLeg
		{
			OFFSET -11.333700 -6.187798 -0.413800
			CHANNELS 3 Xrotation Yrotation Zrotation
			JOINT RightLeg
			{
				OFFSET -0.430392 -32.302628 3.733000
				CHANNELS 3 Xrotation Yrotation Zrotation
				JOINT RightFoot
				{
					OFFSET 0.430392 -48.264973 -6.423500
					CHANNELS 3 Xrotation Yrotation Zrotation
					JOINT RightToeBase
					{
						OFFSET -4.230900 -16.068199 23.438400
						CHANNELS 3 Xrotation Yrotation Zrotation
						JOINT RightToe_End
						{
							OFFSET -4.510700 0.695400 19.974600
							CHANNELS 3 Xrotation Yrotation Zrotation
							End Site
							{
								OFFSET 0 0 0
							}
						}
					}
				}
			}
		}
	}
	JOINT Spine_virtual
	{
		OFFSET 0.000000 0.000000 0.000000
		CHANNELS 3 Xrotation Yrotation Zrotation
		JOINT Spine
		{
			OFFSET -0.002400 12.777504 0.315300
			CHANNELS 3 Xrotation Yrotation Zrotation
			JOINT Spine1
			{
				OFFSET -0.002067 5.816869 0.032633
				CHANNELS 3 Xrotation Yrotation Zrotation
				JOINT Spine1_split
				{
					OFFSET -0.002067 5.816869 0.032633
					CHANNELS 3 Xrotation Yrotation Zrotation
					JOINT Spine2
					{
						OFFSET -0.002067 5.816869 0.032633
						CHANNELS 3 Xrotation Yrotation Zrotation
						JOINT Neck_virtual
						{
							OFFSET 0.000000 0.000000 0.000000
							CHANNELS 3 Xrotation Yrotation Zrotation
							JOINT Neck
							{
								OFFSET -0.003700 21.199493 -0.826900
								CHANNELS 3 Xrotation Yrotation Zrotation
								JOINT Head
								{
									OFFSET 0.000000 20.442200 4.834800
									CHANNELS 3 Xrotation Yrotation Zrotation
									JOINT HeadTop_End
									{
										OFFSET 0.000000 34.668396 4.968400
										CHANNELS 3 Xrotation Yrotation Zrotation
										End Site
										{
											OFFSET 0 0 0
										}
									}
								}
							}
						}
						JOINT LeftShoulder_virtual
						{
							OFFSET 0.000000 0.000000 0.000000
							CHANNELS 3 Xrotation Yrotation Zrotation
							JOINT LeftShoulder
							{
								OFFSET 3.288150 8.794197 -1.372250
								CHANNELS 3 Xrotation Yrotation Zrotation
								JOINT LeftShoulder_split
								{
									OFFSET 3.288150 8.794197 -1.372250
									CHANNELS 3 Xrotation Yrotation Zrotation
									JOINT LeftArm
									{
										OFFSET 11.953299 -2.279007 -0.146200
										CHANNELS 3 Xrotation Yrotation Zrotation
										JOINT LeftForeArm
										{
											OFFSET 18.448900 0.000000 0.000000
											CHANNELS 3 Xrotation Yrotation Zrotation
											JOINT LeftHand
											{
												OFFSET 29.527798 0.000000 0.000000
												CHANNELS 3 Xrotation Yrotation Zrotation
												End Site
												{
													OFFSET 0 0 0
												}
											}
										}
									}
								}
							}
						}
						JOINT RightShoulder_virtual
						{
							OFFSET 0.000000 0.000000 0.000000
							CHANNELS 3 Xrotation Yrotation Zrotation
							JOINT RightShoulder
							{
								OFFSET -3.249400 8.794197 -1.372250
								CHANNELS 3 Xrotation Yrotation Zrotation
								JOINT RightShoulder_split
								{
									OFFSET -3.249400 8.794197 -1.372250
									CHANNELS 3 Xrotation Yrotation Zrotation
									JOINT RightArm
									{
										OFFSET -11.953299 -2.279007 -0.146200
										CHANNELS 3 Xrotation Yrotation Zrotation
										JOINT RightForeArm
										{
											OFFSET -18.448900 0.000000 0.000000
											CHANNELS 3 Xrotation Yrotation Zrotation
											JOINT RightHand
											{
												OFFSET -29.527802 0.000000 0.000000
												CHANNELS 3 Xrotation Yrotation Zrotation
												End Site
												{
													OFFSET 0 0 0
												}
											}
										}
									}
								}
							}
						}
					}
				}
			}
		}
	}
}
MOTION
Frames: 11
Frame Time: 0.03333333
-4.132585 98.237953 -4.981441 0.000000 0.000000 0.000000 -8.411024 -2.959984 8.000891 -1.339354 14.353571 -3.554961 10.119125 3.742966 0.076328 4.173140 -1.876898 0.750549 -4.500842 0.253671 -0.026187 0.000000 0.000000 0.000000 -8.369440 -2.282316 7.842362 -10.971160 -8.370456 -20.725273 30.615469 3.187620 0.298163 -8.210465 -14.146309 4.926349 -5.969233 0.211590 -0.668441 0.000000 0.000000 0.000000 -8.569493 -4.248263 7.382585 2.836365 -0.975843 -5.918905 3.918379 2.046017 -3.626807 2.081542 -1.725540 1.862880 0.000000 0.000000 0.000000 3.439189 1.648818 -3.363299 -1.658511 -2.086122 -5.461896 -0.649568 -12.593691 3.726202 0.000000 0.000000 0.000000 3.048566 1.382217 -3.693291 5.420225 -8.111329 -16.992882 -5.102770 4.434307 -6.000659 19.518806 -0.850907 -46.727459 0.850548 -41.821177 -5.098731 0.000000 0.000000 0.000000 1.832127 1.783146 -2.412226 8.505777 5.124962 4.241188 -0.732979 4.970999 1.476214 -0.128023 -7.922809 69.437643 17.460518 32.345812 2.582675 0.000000 0.000000 0.000000 
-4.696035 98.592102 -4.089788 0.000000 0.000000 0.000000 -8.452811 -2.859512 7.737093 -1.540584 13.345789 -3.184465 10.831731 3.714120 0.154100 4.820681 -1.443962 0.939346 -5.494186 0.168271 0.279575 0.000000 0.000000 0.000000 -8.390280 -2.076108 7.676199 -9.675813 -8.997915 -20.247782 29.232322 2.973263 0.046678 -8.198017 -13.284777 6.324644 -7.916948 0.249491 -0.833701 0.000000 0.000000 0.000000 -8.863355 -3.949404 6.804110 2.705463 -0.988271 -6.011610 4.819033 2.068938 -3.299452 1.852858 -1.042887 1.914380 0.000000 0.000000 0.000000 4.169645 1.748340 -3.107264 -2.469358 -1.954055 -5.143510 -2.421953 -11.203050 3.397744 0.000000 0.000000 0.000000 4.090522 1.419011 -3.271260 5.655143 -8.906711 -15.151392 -3.019976 2.355763 -3.330777 20.494618 -3.693876 -48.044862 0.742558 -43.041523 -4.962284 0.000000 0.000000 0.000000 2.532043 1.842847 -2.189452 7.914903 5.644895 4.343348 -1.050623 5.848009 1.220492 0.249871 -5.089342 68.147379 18.185355 35.907001 1.541270 0.000000 0.000000 0.000000 
-5.278578 99.239761 -3.476675 0.000000 0.000000 0.000000 -8.699026 -2.827975 7.254613 -1.650120 12.258907 -2.792953 11.772741 3.509153 0.219001 5.201861 -0.588108 1.547000 -6.774218 0.076670 0.742732 0.000000 0.000000 0.000000 -8.473209 -1.991320 7.284850 -8.285468 -9.553222 -19.557292 26.994641 2.353198 -0.303745 -7.784432 -12.149773 7.143021 -7.900466 0.298974 -0.846621 0.000000 0.000000 0.000000 -9.237188 -3.633412 5.892297 2.767045 -0.689229 -5.929863 6.393342 2.103917 -2.685529 1.451627 -0.500690 1.458812 0.000000 0.000000 0.000000 5.860383 1.909395 -2.604952 -4.880021 -1.590905 -5.281772 -4.697572 -9.414241 2.614416 0.000000 0.000000 0.000000 5.839648 1.642599 -2.589926 5.747380 -10.539737 -12.259623 -0.839522 0.891175 -1.665926 25.224266 -8.963146 -45.899295 -3.033826 -48.911261 -6.211038 0.000000 0.000000 0.000000 4.137202 1.955794 -1.751783 7.295099 6.458783 3.983002 -1.242560 6.289930 1.172572 2.052912 0.667783 65.649538 20.318438 38.865880 -2.107012 0.000000 0.000000 0.000000 
-5.683201 99.917572 -3.126278 0.000000 0.000000 0.000000 -9.073779 -2.899123 6.645153 -1.671296 11.457008 -2.514737 12.829157 3.186630 0.233295 5.324675 0.649199 2.440110 -7.563413 0.024040 1.031422 0.000000 0.000000 0.000000 -8.525276 -1.939320 6.782579 -7.956523 -9.658045 -18.957822 25.684925 1.602197 -0.624707 -6.138416 -10.895571 7.795930 -6.975894 0.319957 -0.822654 0.000000 0.000000 0.000000 -9.805053 -3.321262 4.937058 3.165254 -0.234546 -5.717384 8.379693 2.096487 -1.905077 1.039840 -0.878381 1.352080 0.000000 0.000000 0.000000 8.195402 2.017666 -1.967176 -8.363784 -0.911147 -5.804758 -7.435286 -7.244415 1.390684 0.000000 0.000000 0.000000 7.895472 1.927376 -1.809790 5.711086 -12.850938 -8.741122 0.541750 0.591664 -2.417712 32.128301 -14.219778 -40.496509 -10.902853 -58.281806 -9.470055 0.000000 0.000000 0.000000 6.377943 2.049686 -1.207503 6.555426 7.645611 3.516921 -1.162081 5.910636 1.084410 5.098790 6.996403 61.969343 23.640839 41.132796 -7.997073 0.000000 0.000000 0.000000 
-5.971485 100.601425 -2.926600 0.000000 0.000000 0.000000 -9.532590 -2.881752 6.031763 -1.812352 11.099790 -2.309841 13.728648 2.600681 0.152590 5.585900 1.951218 3.004061 -7.916209 0.062704 1.122547 0.000000 0.000000 0.000000 -8.524700 -1.765585 6.215687 -9.473762 -8.970246 -18.671616 27.152090 1.227332 -0.857584 -2.921296 -9.475118 9.046182 -6.979529 0.322248 -0.863779 0.000000 0.000000 0.000000 -10.454387 -2.941291 4.138417 3.884136 0.138877 -5.422766 10.456692 2.008203 -1.145884 -0.079217 -1.107997 1.014756 0.000000 0.000000 0.000000 10.770011 1.983056 -1.347273 -12.069061 0.082678 -6.541595 -10.709218 -4.906193 -0.198445 0.000000 0.000000 0.000000 9.957919 2.127577 -1.120176 5.565725 -15.669871 -5.379989 1.511015 0.680361 -4.845770 39.986615 -17.785621 -32.892781 -22.413387 -68.560387 -15.186777 0.000000 0.000000 0.000000 8.866429 2.044243 -0.694062 5.784942 9.358019 3.614540 -1.230757 5.002939 0.497887 9.100052 12.113941 57.150044 27.734746 43.677277 -15.730814 0.000000 0.000000 0.000000 
-6.070043 101.393768 -3.084068 0.000000 0.000000 0.000000 -9.867034 -2.727130 5.508696 -2.160051 11.172100 -2.121025 14.294982 1.816036 0.013012 6.461446 3.065290 3.193005 -8.223295 0.148574 1.118382 0.000000 0.000000 0.000000 -8.439057 -1.346303 5.621817 -12.981931 -7.193437 -18.498133 32.032829 1.414250 -1.181907 0.685129 -7.907014 10.479906 -7.950424 0.313383 -0.950614 0.000000 0.000000 0.000000 -10.875224 -2.531711 3.608059 4.812640 0.306578 -5.115751 12.331025 1.809778 -0.595787 -1.250080 -1.306671 0.803135 0.000000 0.000000 0.000000 13.154652 1.828567 -0.873449 -15.079919 1.306553 -7.393974 -14.341186 -2.680022 -1.842701 0.000000 0.000000 0.000000 11.754312 2.202276 -0.624255 5.252090 -18.879567 -3.045040 1.880591 0.669833 -7.955179 47.827249 -18.901304 -24.679989 -36.244757 -77.826959 -23.019742 0.000000 0.000000 0.000000 11.109531 1.948035 -0.324833 4.988908 11.645384 4.808542 -1.095892 4.171016 -0.759885 13.014091 14.295715 51.403034 32.597409 47.473199 -25.070073 0.000000 0.000000 0.000000 
-6.030051 102.374458 -3.556782 0.000000 0.000000 0.000000 -9.879521 -2.519476 4.994147 -2.882621 11.468776 -1.719298 14.460479 1.035104 -0.185991 8.201282 3.895315 3.339339 -8.486796 0.203646 1.037502 0.000000 0.000000 0.000000 -8.247555 -0.840834 4.908379 -17.844648 -4.626546 -18.037870 39.683341 1.788042 -1.617216 3.074797 -6.462112 10.970281 -7.893362 0.263472 -0.857500 0.000000 0.000000 0.000000 -10.769204 -2.061205 3.212133 5.803347 0.283593 -4.724210 13.829204 1.581847 -0.337788 -1.646731 -1.047344 0.878646 0.000000 0.000000 0.000000 14.977533 1.634413 -0.636479 -16.478685 2.499737 -8.271590 -17.964221 -0.664393 -3.328480 0.000000 0.000000 0.000000 13.163841 2.162583 -0.418427 4.672627 -21.903423 -2.509467 1.620094 0.030962 -9.847164 54.054028 -18.817011 -16.930395 -54.535253 -85.938178 -36.077845 0.000000 0.000000 0.000000 12.887245 1.814607 -0.187617 4.166390 14.165590 7.024812 -0.316393 3.761502 -2.372175 15.594135 13.049681 45.369487 39.159978 53.270168 -36.574181 0.000000 0.000000 0.000000 
-6.056707 103.531906 -4.128704 0.000000 0.000000 0.000000 -9.521228 -2.221942 4.345847 -4.343793 11.685769 -0.848425 14.432449 0.233401 -0.399758 10.809932 4.268552 3.314566 -8.319935 0.241225 0.738915 0.000000 0.000000 0.000000 -8.011936 -0.213315 4.073530 -23.330680 -1.912747 -16.926638 48.346558 1.786528 -2.078297 3.519086 -5.482391 9.812961 -5.884906 0.239808 -0.466199 0.000000 0.000000 0.000000 -9.865037 -1.498315 2.757452 6.689359 0.126768 -4.154238 14.873084 1.451469 -0.391342 -1.559419 -0.137470 0.937574 0.000000 0.000000 0.000000 16.149098 1.553343 -0.659257 -15.621478 3.409918 -9.150023 -20.973235 0.842302 -4.404714 0.000000 0.000000 0.000000 14.255930 2.142519 -0.456339 3.611922 -24.210061 -4.222292 0.601492 -0.984498 -9.789874 57.772083 -17.971570 -9.870171 138.778352 -86.954448 161.232175 0.000000 0.000000 0.000000 14.093845 1.771702 -0.291035 3.459829 16.643525 10.016467 0.663537 3.411101 -3.800703 16.204197 9.293271 39.210811 50.200634 60.993200 -52.487781 0.000000 0.000000 0.000000 
-6.239716 104.607719 -4.810568 0.000000 0.000000 0.000000 -8.798283 -1.859877 3.478367 -6.796506 11.553990 0.501458 14.666849 -0.438153 -0.542373 13.737975 4.284115 3.037993 -7.532189 0.274490 0.031889 0.000000 0.000000 0.000000 -7.739198 0.262486 3.189085 -28.767032 0.309310 -15.184339 55.907817 1.273490 -2.407385 2.371669 -4.965924 7.505393 -3.498607 0.264958 -0.015743 0.000000 0.000000 0.000000 -8.340636 -0.946039 2.135468 7.371985 0.019257 -3.352555 15.530264 1.529367 -0.629996 -0.749111 0.497964 1.273800 0.000000 0.000000 0.000000 16.788938 1.734689 -0.858358 -12.056131 3.851370 -10.060421 -22.586469 1.747894 -5.058367 0.000000 0.000000 0.000000 15.214697 2.272477 -0.580561 2.245290 -25.373075 -7.565007 -0.509815 -2.105756 -8.250984 58.272975 -15.679746 -4.431962 130.816250 -81.087979 155.461280 0.000000 0.000000 0.000000 14.811817 1.915779 -0.548299 2.940331 18.800873 13.252547 1.478155 3.001364 -4.612193 14.770426 4.247266 33.079982 72.499603 69.044210 -78.935417 0.000000 0.000000 0.000000 
-6.680504 105.400581 -5.401188 0.000000 0.000000 0.000000 -7.867312 -1.616636 2.425099 -9.647037 10.975855 1.995713 15.389729 -0.714522 -0.560107 15.343484 4.255836 2.881583 -6.717953 0.296815 -0.945769 0.000000 0.000000 0.000000 -7.397547 0.302937 2.271840 -33.216631 1.471498 -13.229244 61.133239 0.480115 -2.524918 0.666465 -4.726892 5.042417 -2.433562 0.309534 0.236687 0.000000 0.000000 0.000000 -6.616773 -0.639442 1.383082 7.793231 0.079097 -2.341854 16.001665 1.853916 -0.899856 0.162032 0.799121 1.343496 0.000000 0.000000 0.000000 17.287152 2.159979 -1.115831 -5.829402 3.621142 -10.854058 -22.123478 1.981393 -5.513190 0.000000 0.000000 0.000000 16.204083 2.579616 -0.672049 0.841243 -25.206478 -11.479823 -1.489503 -3.014028 -5.802591 54.852723 -12.633981 -1.385605 138.688685 -75.319242 163.378384 0.000000 0.000000 0.000000 15.384532 2.229606 -0.873111 2.621436 20.550093 16.220728 2.124627 2.677364 -4.737164 11.773334 -0.874642 27.156323 112.136188 72.384808 -121.733519 0.000000 0.000000 0.000000 
-7.348518 105.446121 -5.934294 0.000000 0.000000 0.000000 -6.937297 -1.643276 1.378585 -12.529809 10.113078 3.318698 17.385106 -0.463991 -0.449566 14.186587 4.299479 3.072104 -6.421278 0.319754 -1.925055 0.000000 0.000000 0.000000 -6.909389 0.076390 1.408606 -35.907554 1.222781 -11.454858 63.437930 -0.371240 -2.549923 -1.451636 -4.757917 3.057203 -2.782403 0.343350 0.172939 0.000000 0.000000 0.000000 -5.093568 -0.743768 0.705495 7.987943 0.292734 -1.331200 16.521987 2.313959 -1.136547 0.594122 0.708114 1.508214 0.000000 0.000000 0.000000 18.032811 2.715849 -1.320252 2.479512 2.820294 -11.260743 -19.273928 1.705430 -5.848844 0.000000 0.000000 0.000000 17.304144 3.014410 -0.691533 -0.353571 -24.175818 -15.066643 -1.766362 -3.551775 -2.942952 47.155254 -9.710966 -0.628572 151.364355 -69.084345 174.023767 0.000000 0.000000 0.000000 15.995699 2.624629 -1.158861 2.486963 22.004916 18.610777 2.661059 2.448857 -4.212739 7.441487 -4.808009 22.155587 146.498310 68.980983 -157.978355 0.000000 0.000000 0.000000 
